<svg width="162" height="35" viewBox="0 0 162 35" fill="none" xmlns="http://www.w3.org/2000/svg">
<g clip-path="url(#clip0_699_883)">
<path d="M14.6746 19.902H20.662L22.411 21.0179H14.4105L10.8199 31.9371C6.85307 30.4234 3.18192 26.9172 1.64185 22.9765C0.000158566 19.1574 0.000158566 14.3594 1.6778 10.5242C3.25056 6.5821 7.02779 3.02176 11.0481 1.55921C14.212 0.270013 18.4456 0.133493 21.8006 1.14819C25.651 2.23304 29.2864 4.94795 31.3997 8.49221C33.7637 12.3788 34.4278 17.3178 32.9906 21.7534C32.0831 24.6972 30.2132 27.5162 27.6388 29.5321L23.2198 22.2878L29.3714 25.6633C29.4059 25.6633 29.4237 25.625 29.4059 25.59L21.3484 18.7464L31.7696 20.3101C31.8056 20.3101 31.8204 20.294 31.8204 20.2762L31.7518 20.2248L21.926 16.8348L32.1369 14.4093C32.1711 14.4093 32.1711 14.3772 32.1532 14.3594L21.6782 15.0303L29.8801 8.92106C29.898 8.88715 29.8263 8.87107 29.81 8.90645L20.596 13.5019L25.6822 4.67345C25.6822 4.66029 25.6822 4.62346 25.651 4.641L19.0054 12.3142L20.2814 2.23333C20.2814 2.21433 20.2439 2.19679 20.2097 2.21433L17.1534 12.0029L14.4776 1.92053C14.4598 1.90445 14.4239 1.88662 14.4045 1.92053L15.1418 12.3788L8.83053 4.2975C8.81121 4.2785 8.79457 4.2975 8.77674 4.31358L13.5509 13.2567L4.52647 8.40568C4.51013 8.40568 4.47418 8.42468 4.47418 8.44076L12.5002 14.9247L2.25514 13.8601C2.21919 13.8791 2.21919 13.91 2.25514 13.9261L12.1885 16.7849L2.30893 19.6407C2.28961 19.6553 2.28961 19.6907 2.30893 19.7067L12.5002 18.538L4.492 25.2301C4.47418 25.2301 4.45754 25.264 4.492 25.283L4.59957 25.2491L11.0124 21.9454L12.5183 19.5889H14.2301L13.0434 18.764L17.0102 12.4989L14.6702 19.8973L14.6746 19.902ZM44.2239 28.147H36.2291L42.6315 5.66387H59.0175L57.4567 10.9996H49.0949L48.0219 14.8271H56.3852L54.9747 19.7383H46.6132L44.2239 28.147ZM62.7235 28.1473H54.8213L59.5075 11.7222H67.4111L62.7235 28.1473ZM67.8393 10.1556H59.9372L61.2235 5.66417H69.1256L67.8393 10.1556ZM83.2263 28.1467H75.4763L76.0269 26.3085C74.4643 27.605 72.8722 28.5373 70.3305 28.5373C67.7561 28.5373 66.134 27.3317 66.134 24.7711C66.134 21.939 67.2682 17.7192 68.9515 14.7666C70.1766 12.5656 72.3825 11.422 74.9867 11.422C77.2208 11.422 78.8759 12.3852 79.5189 13.5905L81.7246 5.66504H89.6267L83.2263 28.1467ZM77.2836 16.6033C76.5776 16.6033 75.8748 16.8161 75.4763 17.7794C74.8943 19.1653 74.3734 20.5221 74.3734 21.8773C74.3734 22.5117 74.833 23.0534 75.5985 23.0534C76.2103 23.0534 76.6087 22.8727 76.946 22.6628L78.5399 17.2669C78.2641 16.8752 77.7732 16.6033 77.2836 16.6033ZM105.539 20.9746H94.6359C94.421 21.8466 94.2077 22.4503 94.2077 23.1431C94.2077 23.4749 94.2689 24.3192 95.3701 24.3192C96.4731 24.3192 96.9639 23.8962 97.4221 22.3003H105.172C104.192 26.9707 98.5563 28.5668 95.0955 28.5668C90.4079 28.5668 86.7638 27.9047 86.7638 23.4749C86.7638 21.0334 88.0189 16.9956 89.6739 14.8563C91.6648 12.2943 95.1255 11.3311 98.3118 11.3311C103.213 11.3311 106.397 12.325 106.397 16.4229C106.397 17.4183 105.969 19.6179 105.539 20.9746ZM97.637 15.4597C96.6564 15.4597 95.9834 16.1218 95.5537 17.7797H98.8011C98.8936 17.4479 99.016 16.9354 99.016 16.6328C99.016 15.7298 98.4639 15.4597 97.637 15.4597ZM113.482 28.147H105.579L111.981 5.66387H119.885L113.482 28.147ZM123.924 28.1473H116.02L120.707 11.7222H128.61L123.924 28.1473ZM129.038 10.1556H121.136L122.422 5.66417H130.325L129.038 10.1556ZM143.246 11.7222L143.934 15.4296H137.885L136.109 21.6665C135.955 22.1498 135.833 22.7517 135.833 23.1437C135.833 23.8661 136.139 24.1084 137.21 24.1084H138.895L137.731 28.1476H130.686C128.358 28.1476 127.47 27.0318 127.47 25.3432C127.47 24.6516 127.562 23.8971 127.808 23.0528L132.096 8.07534H139.998L138.956 11.7225L143.246 11.7222ZM36.0674 30.6722L38.0375 30.6707L36.7824 34.7143H34.8183L36.0674 30.6722ZM42.9429 30.6754L45.8246 30.674L46.5633 33.3696H46.5829L47.417 30.6725L49.1273 30.671L47.8633 34.7058L45.1052 34.7146L44.3068 31.8339H44.2934L43.419 34.7088L41.7086 34.7102L42.9429 30.6754ZM52.862 30.6772L55.0302 30.6757L55.4109 33.2173L57.3943 30.6728L59.4014 30.6713L56.0928 34.7076L53.6842 34.7105L52.862 30.6772ZM63.1778 30.6786L67.6595 30.6742L67.4072 31.4937L64.8299 31.4951L64.5809 32.3245L66.9969 32.323L66.755 33.1012L64.339 33.1027L64.0897 33.9031L66.6938 33.9013L66.4312 34.7193L61.9259 34.7222L63.1778 30.6786ZM82.4237 31.6629L80.8896 31.6647L81.1927 30.6836L86.2292 30.6792L85.9264 31.6603L84.3923 31.6615L83.4521 34.7038L81.4836 34.7052L82.4237 31.6629ZM90.3048 30.6734L93.2895 30.6704L93.4327 33.3693H93.4461L95.2266 30.669L98.2232 30.6661L96.9785 34.7111L95.1535 34.7126L96.0892 31.6673H96.0758L93.8579 34.714L91.9554 34.7155L91.6853 31.6705H91.6657L90.7315 34.7067L89.06 34.7082L90.3048 30.6734ZM110.763 30.6754L113.642 30.674L114.384 33.3696H114.403L115.237 30.671H116.946L115.696 34.7146L112.902 34.7073L112.127 31.8339H112.114L111.22 34.7088L109.508 34.7102L110.763 30.6754ZM121.669 31.6568L120.133 31.6582L120.436 30.676L125.474 30.6731L125.171 31.6539L123.636 31.6553L122.697 34.7079L120.727 34.7093L121.669 31.6568ZM155.888 24.8433C154.705 24.8433 153.739 25.7917 153.739 26.9575C153.739 28.1219 154.705 29.0717 155.888 29.0717C157.072 29.0717 158.037 28.1216 158.037 26.9575C158.037 25.7917 157.072 24.8433 155.888 24.8433ZM155.888 28.696C155.42 28.696 154.97 28.5129 154.639 28.1869C154.308 27.8609 154.121 27.4187 154.121 26.9577C154.121 26.4966 154.308 26.0544 154.639 25.7284C154.97 25.4024 155.42 25.2193 155.888 25.2193C156.357 25.2193 156.806 25.4024 157.138 25.7284C157.469 26.0544 157.655 26.4966 157.655 26.9577C157.655 27.4187 157.469 27.8609 157.138 28.1869C156.806 28.5129 156.357 28.696 155.888 28.696Z" fill="#C0C7D8"/>
<path d="M156.75 26.5196C156.75 26.0999 156.5 25.8634 155.969 25.8634H155.133V28.0421H155.52V27.1508H155.817L156.369 28.0421H156.797L156.218 27.1201C156.52 27.0836 156.75 26.8985 156.75 26.5196ZM155.52 26.8117V26.201H155.817C156.066 26.1966 156.344 26.2112 156.344 26.5036C156.344 26.7974 156.066 26.812 155.817 26.812L155.52 26.8117ZM73.6969 31.9006C73.6535 31.8553 73.6506 31.7787 73.6702 31.7171C73.7344 31.5115 73.9941 31.3765 74.4104 31.3765C74.6552 31.375 75.0326 31.4028 75.1401 31.4882C75.1931 31.5227 75.2329 31.5737 75.2532 31.633C75.2735 31.6923 75.2731 31.7565 75.2522 31.8156H76.9966C77.2026 31.0932 76.7399 30.6278 74.7699 30.6307C72.8985 30.6322 71.8374 31.0271 71.5644 31.9082C71.4942 32.1374 71.4853 32.4207 71.6794 32.6101C72.1613 33.0828 74.3373 33.2708 74.5209 33.5263C74.5405 33.5523 74.5534 33.5826 74.5583 33.6146C74.5633 33.6467 74.5601 33.6794 74.5491 33.7099C74.449 34.0344 73.9819 34.118 73.5745 34.118C73.3148 34.118 72.9776 34.0636 72.8807 33.9581C72.7898 33.8526 72.7898 33.6894 72.8418 33.5851L71.0153 33.588C70.8331 34.2151 70.7541 34.8667 73.2925 34.8655C75.4221 34.8626 76.3982 34.3501 76.6428 33.5529C76.7637 33.1624 76.6442 32.9452 76.5055 32.8072C76.0324 32.3277 73.9251 32.1518 73.6969 31.9006ZM102.233 30.6796L106.714 30.6752L106.462 31.4946L103.885 31.4961L103.635 32.3257L106.05 32.3242L105.808 33.1024L103.394 33.1036L103.145 33.9055L105.747 33.9025L105.485 34.7202L100.981 34.7231L102.233 30.6796ZM153.914 11.7223L149.625 20.8238L149.747 11.7223H141.754L143.284 28.1474C143.089 29.1091 142.766 29.6508 142.153 29.918C141.481 30.2118 139.965 30.1589 139.431 30.1294L139.334 30.1352L138.073 34.5986L143.468 34.603C146.654 34.603 148.216 33.0276 150.484 29.533L162 11.7217H153.914V11.7223ZM130.584 31.8907C130.54 31.8454 130.539 31.7673 130.557 31.7071C130.621 31.5016 130.882 31.3665 131.297 31.3665C131.542 31.3651 131.919 31.3929 132.027 31.4782C132.08 31.5128 132.12 31.5637 132.14 31.623C132.16 31.6823 132.16 31.7466 132.139 31.8056H133.884C134.089 31.0833 133.627 30.6179 131.657 30.6208C129.787 30.6223 128.724 31.0172 128.453 31.8983C128.381 32.1275 128.372 32.4108 128.566 32.6002C129.048 33.0729 131.224 33.2609 131.408 33.5164C131.427 33.5423 131.44 33.5727 131.445 33.6047C131.45 33.6367 131.447 33.6694 131.436 33.7C131.337 34.0244 130.869 34.1081 130.461 34.1081C130.202 34.1081 129.864 34.0537 129.767 33.9482C129.676 33.8426 129.676 33.6795 129.728 33.5751L127.902 33.5781C127.72 34.2051 127.641 34.8567 130.179 34.8556C132.309 34.8526 133.285 34.3402 133.531 33.543C133.65 33.1524 133.531 32.9352 133.392 32.7972C132.921 32.3181 130.812 32.1418 130.584 31.8907Z" fill="#C0C7D8"/>
</g>
<defs>
<clipPath id="clip0_699_883">
<rect width="162" height="35" fill="white"/>
</clipPath>
</defs>
</svg>
