<svg width="134" height="42" viewBox="0 0 134 42" fill="none" xmlns="http://www.w3.org/2000/svg">
<g clip-path="url(#clip0_604_5364)">
<mask id="mask0_604_5364" style="mask-type:luminance" maskUnits="userSpaceOnUse" x="0" y="0" width="134" height="42">
<path d="M134 0H0V42H134V0Z" fill="white"/>
</mask>
<g mask="url(#mask0_604_5364)">
<path d="M11.7087 11.556H36.5898C36.5898 5.18026 31.3046 0.0796963 24.881 0H0C0 6.37571 5.2852 11.556 11.7087 11.556Z" fill="#C0C7D8"/>
<path d="M0 26.061V42.0003H0.0813106C7.07402 42.0003 12.7658 36.3419 12.7658 29.4879V26.1407H14.8799C21.3846 26.1407 26.6698 20.9604 26.6698 14.5847H11.79C5.2852 14.5847 0 19.6853 0 26.061Z" fill="#C0C7D8"/>
<path d="M63.9102 17.8518V39.2103H58.9501V19.2862H52.5267V39.2103H47.5668V19.2862H44.7208V15.0624H47.5668V12.273C47.5668 7.80998 50.3313 4.94092 54.7221 4.94092H63.5849V9.16481H54.6408C53.4211 9.16481 52.5267 10.2806 52.5267 12.1933V15.0624H61.0642C62.6092 15.0624 63.9102 16.3375 63.9102 17.8518Z" fill="#C0C7D8"/>
<path d="M65.5362 15.0625H70.4148V18.5692H70.4961C71.7158 16.5768 73.9924 14.425 77.9767 14.425C83.3431 14.425 86.6769 18.1708 86.6769 24.0682V39.2904H81.7169V24.3871C81.7169 20.2429 79.5215 18.6489 76.6757 18.6489C73.2606 18.6489 70.4961 21.0399 70.4961 25.5825V39.2106H65.5362V15.0625Z" fill="#C0C7D8"/>
<path d="M87.8152 27.0966C87.8152 19.6051 92.45 14.3452 100.174 14.3452C107.248 14.3452 111.151 18.8082 111.721 24.3072H106.598C106.354 21.199 104.159 18.5691 100.174 18.5691C95.7024 18.5691 92.9378 22.1554 92.9378 27.1764C92.9378 32.5159 96.1089 35.8632 100.174 35.8632C104.077 35.8632 106.191 32.9941 106.598 30.6033H111.721C111.07 35.5444 107.086 40.0872 100.174 40.0872C92.7753 39.9277 87.8152 34.8271 87.8152 27.0966Z" fill="#C0C7D8"/>
<path d="M112.858 4.06421H117.818V14.9826C117.818 16.0983 117.818 16.8954 117.737 18.569H117.818C119.038 16.5765 121.315 14.4247 125.299 14.4247C130.665 14.4247 133.999 18.1704 133.999 24.068V39.29H129.039V24.3869C129.039 20.2427 126.844 18.6486 123.998 18.6486C120.583 18.6486 117.818 21.0396 117.818 25.5822V39.2103H112.858V4.06421Z" fill="#C0C7D8"/>
</g>
</g>
<defs>
<clipPath id="clip0_604_5364">
<rect width="134" height="42" fill="white"/>
</clipPath>
</defs>
</svg>
