<svg width="160" height="24" viewBox="0 0 160 24" fill="none" xmlns="http://www.w3.org/2000/svg">
<path d="M42.0944 14.8901C42.0225 14.8159 42.0741 14.6923 42.1775 14.6923H42.618C42.618 14.6923 42.6382 14.6923 42.6494 14.6923C46.4899 14.3013 49.6989 11.8204 49.6989 7.41817C49.6989 2.34626 45.6067 0.00244141 40.9191 0.00244141H18.964C18.6696 0.00244141 18.4292 0.240644 18.4292 0.537273V23.0429C18.4292 23.3373 18.6674 23.5777 18.964 23.5777H25.9753C26.2696 23.5777 26.5101 23.3395 26.5101 23.0429V15.8564C26.5101 15.562 26.7483 15.3215 27.0449 15.3215H31.6022C32.2337 15.3215 32.8359 15.5935 33.2562 16.0654L39.7483 23.3957C39.8876 23.4586 40.009 23.5126 40.1483 23.5755H49.4022C49.8764 23.5755 50.1146 23.0047 49.782 22.6654L42.0966 14.8901H42.0944ZM39.1708 10.0406H27.0427C26.7483 10.0406 26.5079 9.80244 26.5079 9.50581V6.09682C26.5079 5.80244 26.7461 5.56199 27.0427 5.56199H38.9955C40.7101 5.56199 41.8292 6.40244 41.8292 7.73053C41.8292 9.26986 40.7798 10.0384 39.1708 10.0384V10.0406Z" fill="#C0C7D8"/>
<path d="M130.71 0.00244141H123.701C123.406 0.00244141 123.166 0.241893 123.166 0.537273V15.4766C123.166 15.772 123.406 16.0114 123.701 16.0114H130.71C131.005 16.0114 131.245 15.772 131.245 15.4766V0.537273C131.245 0.241893 131.005 0.00244141 130.71 0.00244141Z" fill="#C0C7D8"/>
<path d="M130.71 19.1934H123.701C123.406 19.1934 123.166 19.4328 123.166 19.7282V23.0428C123.166 23.3381 123.406 23.5776 123.701 23.5776H130.71C131.005 23.5776 131.245 23.3381 131.245 23.0428V19.7282C131.245 19.4328 131.005 19.1934 130.71 19.1934Z" fill="#C0C7D8"/>
<path d="M159.58 22.8721L150.56 10.9283C150.357 10.6609 150.375 10.2901 150.6 10.0429L159.119 0.699071C159.362 0.431655 159.173 0.00244141 158.811 0.00244141H151.44C151.245 0.00244141 151.058 0.085588 150.928 0.229408L142.703 9.26986H142.699C142.672 9.29907 142.636 9.32154 142.591 9.32154H142.294C142.216 9.32154 142.155 9.25862 142.153 9.18221V0.494574C142.153 0.222665 141.933 0.00244141 141.661 0.00244141H134.921C134.649 0.00244141 134.429 0.222665 134.429 0.494574V23.0564C134.429 23.3058 134.631 23.5081 134.881 23.5081H141.699C141.948 23.5081 142.151 23.3058 142.151 23.0564V18.8564C142.151 18.6811 142.218 18.5103 142.337 18.3822L145.33 15.18C145.33 15.18 145.357 15.1395 145.418 15.1395H145.822C145.872 15.1395 145.901 15.18 145.901 15.18L151.933 23.2294C152.063 23.4047 152.27 23.5081 152.488 23.5081H159.261C159.589 23.5081 159.778 23.1328 159.578 22.8699L159.58 22.8721Z" fill="#C0C7D8"/>
<path d="M60.6043 5.38876H67.4605C67.7549 5.38876 67.9953 5.15056 67.9953 4.85393V0.534832C67.9953 0.240449 67.7571 0 67.4605 0H53.2785C52.9841 0 52.7437 0.238202 52.7437 0.534832V23.0404C52.7437 23.3348 52.9819 23.5753 53.2785 23.5753H67.4605C67.7549 23.5753 67.9953 23.3371 67.9953 23.0404V18.7213C67.9953 18.427 67.7571 18.1865 67.4605 18.1865H60.5549C60.2605 18.1865 60.0201 17.9483 60.0201 17.6517V14.8517C60.0201 14.5303 60.2807 14.2674 60.6043 14.2674H67.4605C67.7549 14.2674 67.9953 14.0292 67.9953 13.7326V9.5191C67.9953 9.22472 67.7571 8.98427 67.4605 8.98427H60.6043C60.283 8.98427 60.0201 8.7236 60.0201 8.4V5.96405C60.0201 5.6427 60.2807 5.37978 60.6043 5.37978V5.38876Z" fill="#C0C7D8"/>
<path d="M79.036 5.38876H85.8921C86.1865 5.38876 86.427 5.15056 86.427 4.85393V0.534832C86.427 0.240449 86.1888 0 85.8921 0H71.7101C71.4157 0 71.1753 0.238202 71.1753 0.534832V23.0404C71.1753 23.3348 71.4135 23.5753 71.7101 23.5753H85.8921C86.1865 23.5753 86.427 23.3371 86.427 23.0404V18.7213C86.427 18.427 86.1888 18.1865 85.8921 18.1865H78.9865C78.6921 18.1865 78.4517 17.9483 78.4517 17.6517V14.8517C78.4517 14.5303 78.7124 14.2674 79.036 14.2674H85.8921C86.1865 14.2674 86.427 14.0292 86.427 13.7326V9.5191C86.427 9.22472 86.1888 8.98427 85.8921 8.98427H79.036C78.7146 8.98427 78.4517 8.7236 78.4517 8.4V5.96405C78.4517 5.6427 78.7124 5.37978 79.036 5.37978V5.38876Z" fill="#C0C7D8"/>
<path d="M7.86067 5.38876H14.7169C15.0112 5.38876 15.2517 5.15056 15.2517 4.85393V0.534832C15.2517 0.240449 15.0135 0 14.7169 0H0.53483C0.240448 0 0 0.238202 0 0.534832V23.0404C0 23.3348 0.238201 23.5753 0.53483 23.5753H6.73932C7.0337 23.5753 7.27415 23.3371 7.27415 23.0404L7.27865 14.8539C7.27865 14.5326 7.53932 14.2697 7.86292 14.2697H14.7191C15.0135 14.2697 15.2539 14.0315 15.2539 13.7348V9.52135C15.2539 9.22697 15.0157 8.98652 14.7191 8.98652H7.86292C7.54157 8.98652 7.27865 8.72584 7.27865 8.40225V5.96629C7.27865 5.64494 7.53932 5.38202 7.86292 5.38202L7.86067 5.38876Z" fill="#C0C7D8"/>
<path d="M111.371 0.00244141H90.1437C89.8493 0.00244141 89.6089 0.240644 89.6089 0.537273V23.0429C89.6089 23.3373 89.8471 23.5777 90.1437 23.5777H97.155C97.4493 23.5777 97.6898 23.3395 97.6898 23.0429V15.5935C97.6898 15.4429 97.8111 15.3215 97.9617 15.3215H111.407C116.795 15.3215 120.879 12.5126 120.879 7.553C120.879 2.59345 116.795 0.00244141 111.373 0.00244141H111.371ZM110.35 10.0406H98.2224C97.928 10.0406 97.6875 9.80244 97.6875 9.50581V6.09682C97.6875 5.80244 97.9257 5.56424 98.2224 5.56424H110.175C111.89 5.56424 113.009 6.40244 113.009 7.73278C113.009 9.2721 111.959 10.0406 110.35 10.0406Z" fill="#C0C7D8"/>
</svg>
