<svg width="189" height="26" viewBox="0 0 189 26" fill="none" xmlns="http://www.w3.org/2000/svg">
<path fill-rule="evenodd" clip-rule="evenodd" d="M54.0703 3.8999C49.0159 3.8999 44.9038 8.04277 44.9038 13.1348C44.9038 18.2269 48.9699 22.3251 53.9865 22.3711H54.0703C59.126 22.3711 63.2382 18.2283 63.2382 13.1348C63.2382 8.04137 59.126 3.8999 54.0703 3.8999ZM54.0703 18.6554C51.1767 18.6554 48.9706 16.1792 48.9706 13.1362C48.9706 10.0933 51.1781 7.61703 54.0703 7.61703C56.9625 7.61703 59.1699 10.0933 59.1699 13.1362C59.1699 16.1792 56.9639 18.6554 54.0703 18.6554Z" fill="#C0C7D8"/>
<path fill-rule="evenodd" clip-rule="evenodd" d="M150.548 8.55103C146.748 8.55103 143.657 11.654 143.657 15.4675C143.657 19.2809 146.748 22.3839 150.548 22.3839C154.347 22.3839 157.438 19.2809 157.438 15.4675C157.438 11.654 154.347 8.55103 150.548 8.55103ZM150.548 19.4253C148.474 19.4253 147.082 17.7301 147.082 15.4661C147.082 13.202 148.475 11.5068 150.548 11.5068C152.621 11.5068 154.012 13.202 154.012 15.4661C154.012 17.7301 152.621 19.4253 150.548 19.4253Z" fill="#C0C7D8"/>
<path fill-rule="evenodd" clip-rule="evenodd" d="M73.093 8.62988C76.7069 8.62988 79.4688 11.6132 79.4688 15.4967C79.4688 19.4059 76.7069 22.3892 72.8091 22.3892C71.0682 22.3892 69.3274 21.6929 68.2144 20.4068V25.8354H64.394V9.04138H68.0079V12.0033C69.0621 9.64829 70.8636 8.62988 73.093 8.62988ZM68.2144 15.4967C68.1886 17.8113 69.8406 19.5602 72.0089 19.5602C74.0739 19.5602 75.5969 17.8371 75.5969 15.4967C75.5969 13.1563 74.1772 11.4589 72.0089 11.4589C69.8406 11.4589 68.1886 13.182 68.2144 15.4967Z" fill="#C0C7D8"/>
<path d="M104.15 8.50537C107.532 8.50537 109.597 10.8972 109.597 14.7806V22.0332H105.802V15.0378C105.802 12.6717 104.667 11.3601 102.653 11.3601C100.821 11.3601 99.0913 12.9804 99.0913 15.0378V22.0332H95.271V8.99402H98.7299V12.0277C100.117 9.56968 102.089 8.50537 104.15 8.50537Z" fill="#C0C7D8"/>
<path d="M142.357 14.7677C142.357 10.9357 140.266 8.5439 136.858 8.49246C135.141 8.4708 133.295 9.34322 131.799 11.3863V4.27466H128.005V22.0203H131.799V15.0249C131.799 12.9674 133.554 11.3472 135.387 11.3472C137.426 11.3472 138.562 12.6588 138.562 15.0249V22.0203H142.357V14.7677Z" fill="#C0C7D8"/>
<path d="M167.617 8.50537C170.999 8.50537 173.064 10.8972 173.064 14.7806V22.0332H169.269V15.0378C169.269 12.6717 168.134 11.3601 166.12 11.3601C164.288 11.3601 162.558 12.9804 162.558 15.0378V22.0332H158.738V8.99402H162.197V12.0277C163.584 9.56968 165.556 8.50537 167.617 8.50537Z" fill="#C0C7D8"/>
<path fill-rule="evenodd" clip-rule="evenodd" d="M111.475 4.28735H121C124.33 4.28735 126.704 6.78203 126.704 10.2797C126.704 13.7774 124.33 16.2464 121 16.2464H115.476V22.033H111.475V4.28735ZM119.941 13.2116C121.516 13.2116 122.523 12.08 122.523 10.2797C122.523 8.50515 121.516 7.37355 119.941 7.37355H115.476V13.2116H119.941Z" fill="#C0C7D8"/>
<path fill-rule="evenodd" clip-rule="evenodd" d="M80.3354 15.4675C80.3354 11.6543 83.4268 8.55141 87.2259 8.55103C91.0251 8.55139 94.1151 11.6543 94.1151 15.4675C94.1151 15.8653 94.0816 16.2645 94.0132 16.6553H91.5634V16.6572H83.9164L83.9758 16.8382C84.3632 18.4741 85.6382 19.5741 87.2266 19.5741C88.3803 19.5741 89.3588 19.1218 89.9192 18.3318H93.4968C92.3759 20.7996 89.9374 22.3839 87.2266 22.3839C83.4272 22.3839 80.3354 19.2809 80.3354 15.4675ZM83.9526 14.1687L83.9702 14.1135C84.3505 12.4664 85.4825 11.3609 87.2266 11.3609C88.9708 11.3609 90.1013 12.4678 90.4816 14.1135L90.4993 14.1687H83.9526Z" fill="#C0C7D8"/>
<path fill-rule="evenodd" clip-rule="evenodd" d="M181.11 8.55103C177.311 8.55139 174.22 11.6543 174.22 15.4675C174.22 19.2809 177.311 22.3839 181.111 22.3839C183.822 22.3839 186.26 20.7996 187.381 18.3318H183.803C183.243 19.1218 182.264 19.5741 181.111 19.5741C179.378 19.5741 178.247 18.4741 177.86 16.8382L177.801 16.6572H185.448V16.6553H187.897C187.966 16.2645 187.999 15.8653 187.999 15.4675C187.999 11.6543 184.909 8.55141 181.11 8.55103ZM177.854 14.1135L177.837 14.1687H184.384L184.366 14.1135C183.986 12.4678 182.855 11.3609 181.111 11.3609C179.367 11.3609 178.235 12.4664 177.854 14.1135Z" fill="#C0C7D8"/>
<path d="M22.753 0C28.6634 0.00110624 33.8299 3.98807 35.3281 9.70538C36.8263 15.4227 34.2789 21.431 29.128 24.3293C23.9771 27.2277 17.5194 26.2863 13.4102 22.0382C17.0934 20.5485 19.5042 16.9729 19.5042 12.9998C19.5042 9.02678 17.0934 5.45114 13.4102 3.96143C15.8299 1.45413 19.1558 0.0276395 22.6369 0.000389656L22.753 0ZM1.99917 7.08449C4.66473 3.59137 9.33731 2.31254 13.4102 3.96143C8.53487 9.00087 8.53487 16.9988 13.4102 22.0382C9.33731 23.6871 4.66473 22.4083 1.99917 18.9152C-0.66639 15.422 -0.66639 10.5776 1.99917 7.08449Z" fill="#C0C7D8"/>
</svg>
