<svg width="188" height="38" viewBox="0 0 188 38" fill="none" xmlns="http://www.w3.org/2000/svg">
<path d="M43.0113 8.87817H52.647C59.6119 8.87817 61.3924 12.9373 61.3924 16.2364C61.3924 19.5354 59.5944 23.5945 52.647 23.5945H46.6945V35.2018H43.0113V8.87817ZM46.712 20.4854H51.5822C54.5148 20.4854 57.4299 19.8291 57.4299 16.2536C57.4299 12.6782 54.4973 12.0218 51.5822 12.0218H46.712V20.4854Z" fill="#C0C7D8"/>
<path d="M66.2277 8.7572C67.6241 8.7572 68.7588 9.84538 68.7762 11.1754C68.7937 12.5227 67.694 13.6281 66.2975 13.6627C64.901 13.6972 63.7489 12.6436 63.6966 11.2963C63.6791 10.6227 63.941 9.98357 64.4123 9.49993C64.8661 9.03357 65.5294 8.7572 66.2277 8.7572ZM64.517 17.5836H67.9384V35.219H64.517V17.5836Z" fill="#C0C7D8"/>
<path d="M71.9183 17.5835H75.392V20.3126H75.4793C76.6838 18.2399 79.0228 16.9963 81.4841 17.1517C85.0277 17.1517 88.0825 19.2072 88.0825 23.8881V35.2363H84.6611V24.8381C84.6611 21.5217 82.6886 20.2954 80.4891 20.2954C77.6089 20.2954 75.4095 22.0745 75.4095 26.1681V35.2363H71.9183V17.5835Z" fill="#C0C7D8"/>
<path d="M94.4189 27.6364C94.4189 30.7109 97.3864 32.7318 100.581 32.7318C102.588 32.68 104.456 31.6955 105.591 30.1064L108.227 32.0409C106.306 34.4764 103.269 35.8409 100.11 35.6855C94.3142 35.6855 90.7183 31.6782 90.7183 26.4273C90.6135 23.9746 91.5736 21.5909 93.3541 19.8464C95.1346 18.1018 97.5784 17.1346 100.127 17.1691C106.568 17.1691 109.03 21.9191 109.03 26.4618V27.6537H94.4189V27.6364ZM105.381 24.9591C105.294 22.0227 103.601 19.8637 100.11 19.8637C97.1246 19.8464 94.6284 22.0746 94.4364 24.9591H105.381Z" fill="#C0C7D8"/>
<path d="M124.74 22.2818C123.605 20.9864 121.947 20.2609 120.184 20.3127C116.413 20.3127 114.476 23.2491 114.476 26.5655C114.388 28.1373 114.965 29.6573 116.082 30.7973C117.199 31.9373 118.752 32.5764 120.376 32.5591C122.087 32.6109 123.727 31.8855 124.81 30.59L127.271 32.9391C125.473 34.77 122.942 35.7546 120.341 35.6509C117.775 35.7718 115.279 34.8564 113.463 33.0946C111.648 31.35 110.67 28.9318 110.793 26.4618C110.67 23.9746 111.648 21.5564 113.463 19.7946C115.279 18.0327 117.775 17.0827 120.358 17.1691C122.994 17.1 125.543 18.1191 127.376 19.95L124.74 22.2818Z" fill="#C0C7D8"/>
<path d="M137.535 17.1345C142.807 17.2208 147.031 21.4008 146.979 26.4963C146.926 31.5917 142.615 35.6854 137.326 35.6508C132.054 35.6163 127.777 31.4881 127.777 26.3926C127.777 23.9054 128.807 21.539 130.64 19.7945C132.49 18.0499 134.969 17.0999 137.535 17.1345ZM137.535 32.5417C141.218 32.5417 143.54 30.0026 143.54 26.3926C143.54 22.7999 141.218 20.2608 137.535 20.2608C133.852 20.2608 131.513 22.7999 131.513 26.3926C131.513 29.9854 133.834 32.5417 137.535 32.5417Z" fill="#C0C7D8"/>
<path d="M150.068 17.5836H153.542V20.3127C154.747 18.2227 157.103 16.9963 159.564 17.1518C163.108 17.1518 166.163 19.2072 166.163 23.8881V35.2363H162.689V24.8381C162.689 21.5218 160.716 20.2954 158.534 20.2954C155.637 20.2954 153.455 22.0745 153.455 26.1681V35.2363H150.086V17.5836H150.068Z" fill="#C0C7D8"/>
<path d="M172.604 27.6363C172.604 30.7109 175.571 32.7318 178.766 32.7318C180.773 32.6627 182.641 31.6954 183.776 30.1063L186.412 32.0409C184.491 34.4591 181.471 35.8063 178.312 35.6336C172.534 35.6336 168.921 31.6263 168.921 26.3754C168.816 23.9227 169.776 21.5218 171.557 19.7772C173.337 18.0154 175.798 17.0654 178.347 17.1172C184.788 17.1172 187.249 21.8672 187.249 26.41V27.6018L172.604 27.6363ZM183.549 24.9418C183.461 22.0054 181.786 19.8463 178.277 19.8463C175.292 19.8291 172.796 22.0572 172.604 24.9418H183.549Z" fill="#C0C7D8"/>
<path fill-rule="evenodd" clip-rule="evenodd" d="M22.169 1.10542C21.8024 0.673599 21.1915 0.569962 20.7027 0.846326L20.2488 1.08814L15.3088 3.86905L16.4609 5.87269L19.6728 4.05905L18.8873 8.30814L21.174 8.72269L21.977 4.45633L24.351 7.25451L26.1315 5.76905L22.5356 1.51996H22.5181L22.169 1.10542ZM15.239 36.9463C16.426 36.9463 17.3861 36.0136 17.3861 34.8736C17.3861 33.7336 16.426 32.8009 15.239 32.8009C14.052 32.8009 13.0919 33.7336 13.0919 34.8736C13.0745 36.0136 14.052 36.9463 15.239 36.9463ZM18.1192 25.5636L17.3512 29.83L15.047 29.4154L15.815 25.1663L12.6032 26.9972L11.4336 24.9936L16.3387 22.2127L16.7926 21.9536C17.2813 21.6772 17.8923 21.7809 18.2589 22.2127L18.608 22.6272L22.2563 26.8591L20.4758 28.3618L18.1192 25.5636ZM19.987 15.3727L19.2189 19.6391L16.9148 19.2245L17.6828 14.9927L14.4884 16.8063L13.3363 14.8027L18.224 12.0391V12.0045H18.2589L18.7127 11.7454C19.2015 11.4691 19.8124 11.5727 20.179 12.0045L20.5281 12.4018L24.159 16.6509L22.3785 18.1536L19.987 15.3727ZM4.92256 32.2309H4.90511L4.4338 32.0927C3.92758 31.9545 3.59591 31.4709 3.63083 30.9527L4.04977 25.1836L6.26667 25.3391L6.00483 28.8454L9.44364 26.5309L10.683 28.3445L7.31402 30.6072L10.7528 31.5918L10.1419 33.6991L4.92256 32.2309ZM27.7374 34.6145L27.5803 35.1154C27.4232 35.5991 26.9694 35.9272 26.4457 35.8927L25.9569 35.8581L25.922 35.8754L25.9045 35.8581L20.4932 35.4954L20.6329 33.3018L24.2288 33.5436L21.8722 30.2791L23.6702 29.0009L26.0791 32.3518L27.1265 28.9663L29.2386 29.6054L27.7374 34.6145ZM34.0914 22.7309L34.3532 23.1972C34.615 23.6636 34.5103 24.2509 34.0914 24.5963L33.7073 24.9245V24.9418H33.6899L29.483 28.4654L28.0167 26.7554L30.7747 24.4409L26.6377 23.7154L27.0392 21.5045L31.2111 22.23L29.4656 19.1209L31.4381 18.0327L34.0914 22.7309ZM29.8147 13.0927L26.0791 15.0791L24.9968 13.11L28.68 11.1581L25.311 9.7936L26.1664 7.72087L31.2984 9.77633L31.3159 9.75905L31.3333 9.7936L31.8046 9.9836C32.3109 10.1909 32.5902 10.7091 32.5029 11.2272L32.4156 11.7454L31.4555 17.0136L29.2212 16.6163L29.8147 13.0927ZM4.748 17.7218L8.90251 18.4127L8.51848 20.6236L4.32906 19.9154L6.10956 23.0245L4.13705 24.13L1.44884 19.4491L1.187 19C0.925162 18.5336 1.0299 17.9463 1.43138 17.6009L1.81541 17.2727V17.2554H1.83287L5.98737 13.7145L7.47112 15.4245L4.748 17.7218ZM11.0147 8.15269L13.7727 11.1927L12.0795 12.6954L9.25162 9.58633L8.60576 13.1272L6.3714 12.73L7.34893 7.47905L7.45367 6.9436C7.54095 6.42542 7.9948 6.04542 8.51848 6.02814L9.00724 6.01087L9.0247 5.9936L9.04215 6.01087L14.5931 5.78633L14.6804 8.03178L11.0147 8.15269Z" fill="#C0C7D8"/>
</svg>
