<svg width="120" height="34" viewBox="0 0 120 34" fill="none" xmlns="http://www.w3.org/2000/svg">
<path d="M0.03125 29.7483C5.77779 35.3744 15.0948 35.3744 20.8413 29.7483C26.5878 24.1221 26.5878 15.0002 20.8413 9.37402L18.24 11.9208C22.5499 16.1405 22.5499 22.9819 18.24 27.2015C13.9301 31.4211 6.9424 31.4211 2.63248 27.2015L0.03125 29.7483Z" fill="#C0C7D8"/>
<path d="M5.2334 24.6546C8.10664 27.4677 12.7651 27.4677 15.6384 24.6546C18.5116 21.8416 18.5116 17.2806 15.6384 14.4675L13.0372 17.0143C14.4738 18.4208 14.4738 20.7013 13.0372 22.1079C11.6005 23.5144 9.27125 23.5144 7.83464 22.1079L5.2334 24.6546Z" fill="#C0C7D8"/>
<path d="M26.0432 4.28042C20.2967 -1.34575 10.9797 -1.34575 5.23324 4.28042C-0.513294 9.90663 -0.513294 19.0285 5.23324 24.6547L7.83443 22.1079C3.52462 17.8883 3.52462 11.0469 7.83443 6.82725C12.1444 2.60758 19.1321 2.60758 23.4419 6.82725L26.0432 4.28042Z" fill="#C0C7D8"/>
<path d="M20.8408 9.37396C17.9676 6.56089 13.309 6.56089 10.4357 9.37396C7.56244 12.1871 7.56244 16.748 10.4357 19.5611L13.037 17.0143C11.6004 15.6078 11.6004 13.3273 13.037 11.9207C14.4736 10.5142 16.8028 10.5142 18.2395 11.9207L20.8408 9.37396Z" fill="#C0C7D8"/>
<path d="M43.2703 19.0298C43.2703 20.8255 41.9613 21.7157 40.7072 21.7157C39.3434 21.7157 38.4342 20.7718 38.4342 19.2754V12.1999H35.5967V19.7051C35.5967 22.5368 37.2428 24.1408 39.6099 24.1408C41.4127 24.1408 42.6824 23.2122 43.2311 21.8922H43.3565V23.9873H46.1078V12.1999H43.2703V19.0298ZM48.5841 28.4075H51.4215V22.1301H51.539C51.9858 22.9897 52.9185 24.1944 54.9878 24.1944C57.8253 24.1944 59.9494 21.992 59.9494 18.1089C59.9494 14.1798 57.7625 12.0464 54.98 12.0464C52.8559 12.0464 51.9702 13.2973 51.539 14.1491H51.3744V12.1999H48.5841V28.4075ZM51.3666 18.0936C51.3666 15.8067 52.3699 14.3256 54.1962 14.3256C56.0852 14.3256 57.0571 15.8988 57.0571 18.0936C57.0571 20.3037 56.0695 21.9153 54.1962 21.9153C52.3856 21.9153 51.3666 20.3804 51.3666 18.0936ZM71.4534 15.3155C71.0615 13.3203 69.4311 12.0464 66.6094 12.0464C63.7093 12.0464 61.734 13.4431 61.7419 15.6225C61.734 17.3415 62.8157 18.4773 65.1279 18.9454L67.1815 19.3674C68.2867 19.6054 68.8041 20.0427 68.8041 20.7104C68.8041 21.5162 67.9105 22.1224 66.5623 22.1224C65.2612 22.1224 64.4147 21.5699 64.1717 20.5109L61.4048 20.7718C61.7576 22.9359 63.6152 24.2175 66.5702 24.2175C69.5801 24.2175 71.7042 22.6904 71.712 20.4572C71.7042 18.7765 70.599 17.7483 68.3259 17.2648L66.2723 16.835C65.0496 16.5665 64.5636 16.1521 64.5714 15.469C64.5636 14.671 65.465 14.1184 66.6486 14.1184C67.9575 14.1184 68.6473 14.8168 68.8668 15.5918L71.4534 15.3155ZM79.6218 12.1999H77.2476V9.37582H74.4098V12.1999H72.701V14.3486H74.4098V20.9023C74.3943 23.1201 76.0402 24.2098 78.1724 24.1484C78.9795 24.1254 79.5357 23.9719 79.8418 23.8721L79.3636 21.7004C79.2069 21.7388 78.8853 21.8078 78.5329 21.8078C77.8192 21.8078 77.2476 21.5622 77.2476 20.4418V14.3486H79.6218V12.1999ZM85.0185 24.2252C86.9072 24.2252 88.0358 23.358 88.553 22.368H88.6472V23.9873H91.3753V16.0983C91.3753 12.9826 88.7804 12.0464 86.4841 12.0464C83.9524 12.0464 82.0086 13.1515 81.381 15.3002L84.0304 15.6686C84.3129 14.8628 85.1119 14.1721 86.4996 14.1721C87.8165 14.1721 88.5376 14.8321 88.5376 15.9908V16.0369C88.5376 16.835 87.6834 16.8734 85.5593 17.0959C83.2233 17.3415 80.9896 18.0245 80.9896 20.6797C80.9896 22.9973 82.7215 24.2252 85.0185 24.2252ZM85.755 22.1838C84.5712 22.1838 83.7251 21.6544 83.7251 20.6337C83.7251 19.567 84.6734 19.1219 85.9433 18.9454C86.6879 18.8456 88.1771 18.6614 88.5457 18.3698V19.7589C88.5457 21.0711 87.4634 22.1838 85.755 22.1838ZM103.303 15.3155C102.91 13.3203 101.28 12.0464 98.4584 12.0464C95.558 12.0464 93.5826 13.4431 93.5907 15.6225C93.5826 17.3415 94.6649 18.4773 96.9766 18.9454L99.0308 19.3674C100.136 19.6054 100.653 20.0427 100.653 20.7104C100.653 21.5162 99.7591 22.1224 98.4113 22.1224C97.1097 22.1224 96.2636 21.5699 96.0208 20.5109L93.2537 20.7718C93.6061 22.9359 95.4639 24.2175 98.4194 24.2175C101.429 24.2175 103.553 22.6904 103.561 20.4572C103.553 18.7765 102.448 17.7483 100.175 17.2648L98.1214 16.835C96.8986 16.5665 96.4123 16.1521 96.4203 15.469C96.4123 14.671 97.3135 14.1184 98.4974 14.1184C99.8062 14.1184 100.496 14.8168 100.716 15.5918L103.303 15.3155ZM108.297 17.0806C108.297 15.377 109.378 14.3946 110.899 14.3946C112.388 14.3946 113.266 15.3232 113.266 16.9118V23.9873H116.104V16.482C116.104 13.635 114.457 12.0464 111.957 12.0464C110.107 12.0464 108.932 12.8675 108.375 14.2028H108.234V8.27075H105.459V23.9873H108.297V17.0806Z" fill="#C0C7D8"/>
</svg>
