<svg width="294" height="46" viewBox="0 0 294 46" fill="none" xmlns="http://www.w3.org/2000/svg">
<g clip-path="url(#clip0_605_5417)">
<path d="M16.8501 14.5233V30.5204C18.9982 29.3531 20.5025 27.3208 21.2328 25.0291L21.4049 25.116C20.9318 30.8232 17.0647 36.5298 11.0488 36.5298C4.98974 36.5298 0.520691 31.9905 0.520691 24.7263C0.520691 19.2791 4.04425 15.863 8.55648 12.7931C7.89717 12.6191 7.2182 12.5319 6.53658 12.5338C3.44228 12.5338 1.63764 14.6523 1.63764 16.8143H1.37983C1.33665 16.5115 1.33665 16.2093 1.33665 15.9064C1.33665 12.0584 3.35655 7.38878 8.25549 7.38878C11.3923 7.38878 13.799 10.2855 17.4514 10.2855C18.9125 10.2855 20.7172 9.59359 21.4474 7.99381H21.5763C21.5338 10.8049 20.6746 13.7016 16.8501 14.5233ZM19.1703 30.9095C17.0215 33.2005 14.7013 35.1466 11.6933 35.1466C6.10733 35.1466 1.81035 30.7363 1.81035 24.3372C1.81035 20.5761 3.35719 18.5444 5.0761 16.1658H4.90402C3.82962 17.2468 0.993758 19.9704 0.993758 24.5966C0.993758 31.6876 5.41963 36.0544 11.2209 36.0544C15.2601 36.0544 18.0102 33.2446 19.2567 30.9529L19.1703 30.9095ZM20.8886 9.9405C20.1584 11.3237 18.6115 13.096 15.4747 13.096C12.3378 13.096 9.4588 10.934 6.92329 10.934C4.6024 10.934 3.01302 12.4909 2.41105 13.6582L2.45423 13.7451C3.27083 12.9235 4.51668 12.1019 6.53658 12.1019C9.88805 12.1019 12.0369 14.1776 15.4315 14.1776C19.0414 14.1776 20.674 11.799 20.975 9.98395L20.8886 9.9405ZM8.94255 12.9235C6.75121 15.2152 4.7313 17.7228 4.7313 22.6084C4.7313 25.2885 5.63362 28.0556 7.65353 29.785L8.89937 29.1359V17.5497L7.73925 18.1547L7.52462 17.7222L13.5405 14.4357C11.908 14.0907 10.4468 13.356 8.94255 12.9235ZM16.377 14.6095C16.076 14.6523 15.7757 14.6523 15.4315 14.6523C14.8302 14.6523 14.2714 14.6095 13.7126 14.4792V27.1036L8.08341 30.1748C9.24354 31.0392 10.6615 31.5579 12.4661 31.5579C13.9272 31.5579 15.2162 31.2551 16.3764 30.7363L16.377 14.6095ZM10.189 16.8149L9.37244 17.2903V28.8778L10.189 28.4453V16.8149ZM34.8977 18.4575V33.4171C34.8977 37.5673 31.2453 40.3784 27.1629 41.1994L27.0772 41.0263C29.0971 40.0315 30.2572 37.9999 30.2572 35.8379V20.3595L27.937 18.2416L27.0347 19.2357V31.2986L28.3237 32.4658V32.5527L24.8433 36.3573L20.8473 32.6824V32.5093L22.3942 30.866V11.7562L26.9489 6.87128L27.0347 6.91409V18.501L30.7735 14.437L34.6837 17.9828L35.414 17.204L35.7581 17.5075L34.8977 18.4575ZM22.866 32.5955V32.5093L23.7683 31.6008V11.0209L22.866 11.9728V31.1689L21.4906 32.5527V32.6389L24.842 35.6654L25.4434 34.9734L22.866 32.5955ZM31.632 19.6676L28.8387 17.2468L28.2373 17.8953L30.7297 20.1442V35.7088C30.7297 36.7464 30.515 37.8267 30.1283 38.4324L30.1715 38.4758C31.2459 37.697 31.6326 36.5298 31.6326 35.0169V19.6676H31.632ZM41.7302 27.1477V29.3525L45.8983 32.6383L48.3049 30.0444L48.6491 30.3901L43.0631 36.3994L37.3907 31.8167L36.5316 32.7246L36.1874 32.3789L37.1761 31.3414V20.4029L45.2976 14.4364L49.552 21.3543L41.7302 27.1477ZM38.5502 30.9529V19.9704L37.6479 20.6195V31.3854L42.9767 35.7523L43.6644 35.0175L38.5502 30.9529ZM41.8166 17.6359L41.7302 17.6794V26.5427L45.5548 23.7322L41.8166 17.6359ZM42.9335 16.7715L42.1601 17.3331L45.9421 23.4294L46.7155 22.8671L42.9335 16.7715ZM77.562 36.3566L71.5887 31.1682L67.0339 36.3566L60.8459 30.9951V22.5215H59.6426C58.5682 22.5215 58.0101 23.2134 57.7516 24.0344H57.6227C57.4856 23.4976 57.4135 22.946 57.4081 22.3918C57.4081 21.2674 57.7091 18.3278 60.8459 18.3278V10.8912C60.8459 9.46453 59.1702 8.90231 59.1702 6.9997C59.1702 4.53614 61.4905 2.11475 65.7449 0.600586L65.917 0.73028C64.3701 1.63878 63.5535 2.5032 63.5535 4.36236C63.5535 7.21628 66.3037 6.48092 66.3037 10.9774V12.7069L71.3315 7.38878L76.6172 12.62L81.6018 7.38878L86.4144 12.1447V28.1418L77.562 36.3566ZM62.2213 30.3038V21.1818H59.8147C58.5682 21.1818 58.0101 22.0027 57.9237 22.7381L57.9663 22.7815C58.3961 22.3062 58.826 22.0468 59.8141 22.0468H61.3177V30.7804L66.9901 35.7094L67.6346 34.9306L62.2213 30.3038ZM62.2213 10.4586C62.2213 8.68636 60.6745 8.0807 60.6745 6.95689C60.6745 5.39992 61.2758 4.10361 62.2213 2.89292L62.1356 2.85011C60.8466 3.84486 59.6433 5.44464 59.6433 7.00034C59.6433 8.55731 61.319 9.29203 61.319 10.6759V18.3285H62.2213V10.4586ZM71.2883 14.7826L68.0226 11.5831L66.3037 13.3554V28.6606L70.2139 31.9898L71.2883 30.7791V14.7826ZM72.6631 30.2176V14.1776L69.0106 10.5455L68.3229 11.2374L71.7608 14.5661V30.6929L77.562 35.7516L78.2497 35.1025L72.6631 30.2176ZM80.9999 14.2204L78.2929 11.6259L76.7461 13.2257V28.6178L80.9573 32.3355L80.9999 32.2927V14.2204ZM82.3746 13.6154L79.2378 10.5455L78.5933 11.2374L81.4723 14.0045V32.0767L82.3746 31.2117V13.6154ZM100.634 36.3566L96.5514 32.6383L92.8989 36.3566L88.4299 32.3789L87.8279 33.0274L87.4844 32.6818L88.2578 31.8601V20.2739L96.3367 14.3936L100.978 18.0256L101.794 17.1606L102.139 17.5069L101.193 18.501V30.4776L103.47 32.5955L104.201 31.8173L104.545 32.1202L100.634 36.3566ZM89.6332 31.5579V19.8842L88.7308 20.5326V31.9905L92.8564 35.7088L93.5441 35.0169L89.6332 31.5579ZM96.5514 20.187L93.0278 17.42L92.8989 17.5069V30.0879L95.8211 32.6383L96.5514 31.9036V20.187ZM97.9268 31.947V19.5385L94.2743 16.5549L93.4152 17.1599L97.0244 20.0139V32.3789L100.634 35.6647L101.279 34.9728L97.9268 31.947ZM113.139 22.2621H117.564V31.5145L110.732 36.3566C109.83 35.3191 108.54 34.5844 106.951 34.5844C105.662 34.5844 104.63 35.0169 103.255 36.1841L103.04 36.0973L108.885 27.5368H105.275V19.4951L112.451 14.4798C113.311 15.1717 113.955 15.5602 115.073 15.5602C115.933 15.5602 117.178 15.387 118.124 14.6095L118.296 14.6958L113.139 22.2621ZM108.326 33.3302C107.079 33.3302 106.091 33.7628 105.232 34.3678V34.4547C105.919 34.1518 106.607 34.0656 107.252 34.0656C108.24 34.0656 109.787 34.5416 110.818 35.7523L111.807 35.0175C110.99 34.0656 110.002 33.3302 108.326 33.3302ZM112.923 26.0667H110.517L105.489 33.3743L105.532 33.4606C106.778 32.5527 107.981 31.9477 109.442 31.9477C110.731 31.9477 112.064 32.5527 112.88 33.5903L112.923 33.5474V26.0667ZM106.65 26.0667V19.1066L105.747 19.7551V27.0186H109.228L109.915 26.0673L106.65 26.0667ZM115.631 17.5925C114.729 18.2416 114.213 18.5872 112.709 18.5872C111.849 18.5872 110.818 18.1981 110.002 17.3331L109.916 17.3765V23.6888H111.549L115.674 17.6353L115.631 17.5925ZM113.568 17.2034C112.795 17.2034 111.807 16.8149 111.162 15.9499L110.087 16.6846C110.904 17.6794 111.677 18.1113 112.88 18.1113C113.654 18.1113 114.771 17.8947 115.931 16.8999L115.974 16.7709C115.244 17.0743 114.342 17.2034 113.568 17.2034ZM114.299 24.6407H111.505L110.861 25.5486H113.396V33.9359L114.299 33.2874V24.6407ZM132.39 18.4575V33.4171C132.39 37.5673 128.737 40.3784 124.655 41.1994L124.569 41.0263C126.589 40.0315 127.749 37.9999 127.749 35.8379V20.3595L125.429 18.2416L124.526 19.2357V31.2986L125.815 32.4658V32.5527L122.335 36.3573L118.339 32.6824V32.5093L119.886 30.866V11.7562L124.441 6.87128L124.526 6.91409V18.501L128.265 14.437L132.176 17.9828L132.906 17.204L133.25 17.5075L132.39 18.4575ZM120.358 32.5955V32.5093L121.26 31.6008V11.0209L120.358 11.9722V31.1682L118.982 32.5521V32.6383L122.334 35.6647L122.935 34.9728L120.358 32.5955ZM129.124 19.6676L126.33 17.2468L125.729 17.8953L128.221 20.1442V35.7088C128.221 36.7464 128.007 37.8267 127.62 38.4324L127.663 38.4758C128.738 37.697 129.124 36.5298 129.124 35.0169L129.124 19.6676ZM140.211 36.3566L136.515 32.9411L135.655 33.849L135.311 33.5027L136.3 32.4224V19.9276L134.495 18.1981L133.807 18.9769L133.463 18.6307L137.33 14.3936L140.768 17.5069L141.628 16.5556L142.015 16.8584L140.94 18.0256V30.6507L143.003 32.5961L143.949 31.6014L144.292 31.9477L140.211 36.3566ZM137.675 32.1202V19.2357L135.441 17.1606L134.839 17.8525L136.773 19.7117V32.5527L140.211 35.6654L140.855 34.9734L137.675 32.1202ZM138.964 14.0479L135.441 10.8056L138.664 7.34661L142.187 10.589L138.964 14.0479ZM136.773 10.113L136.128 10.7615L138.921 13.3988L139.566 12.6641L136.773 10.113ZM158.381 36.3566L154.642 32.9411V20.3167L152.364 18.2416L151.161 19.5385V31.2117L152.493 32.4652V32.6383L148.97 36.3566L144.973 32.6818V32.5521L146.521 30.9095V20.0139L144.501 18.1547L143.684 19.0626L143.341 18.7169L147.251 14.4364L151.161 17.9388V18.8032L155.243 14.4364L159.067 17.8953L159.927 16.9874L160.314 17.3331L159.283 18.4141V30.7791L161.216 32.5949L162.162 31.5573L162.505 31.9029L158.381 36.3566ZM147.036 32.5955V32.5093C147.036 32.5955 147.896 31.6442 147.896 31.6442V19.3648L145.446 17.1165L144.844 17.765L146.993 19.7538V31.1676L145.661 32.5514V32.6377L148.97 35.6641L149.657 34.9294L147.036 32.5955ZM156.017 32.2499V19.582L153.353 17.1606L152.665 17.8953L155.115 20.1001V32.6818L158.337 35.7082L159.025 34.9728L156.017 32.2499ZM170.498 44.1389C169.081 42.5826 168.092 41.9341 166.76 41.9341C165.342 41.9341 163.709 42.4964 162.033 43.4042L161.904 43.2752L167.835 36.3573L163.623 32.9852L162.807 33.8503L162.463 33.5474L163.408 32.5099V20.2739L171.573 14.3936L176.128 18.0256L176.902 17.1606L177.245 17.5069L176.343 18.501V33.2881C176.343 35.5363 177.589 35.4501 177.589 37.1354C177.589 39.0809 174.795 40.8966 170.498 44.1389ZM164.784 32.163V19.9276L163.881 20.5767V32.5527L168.135 36.0116L168.78 35.2328L164.784 32.163ZM167.791 40.8103C166.374 40.8103 165.084 41.2429 163.881 42.0638V42.1507C164.655 41.8479 165.514 41.4588 166.975 41.4588C168.307 41.4588 169.424 42.1935 170.542 43.4911L171.401 42.7992C170.326 41.5457 169.037 40.8103 167.791 40.8103ZM173.034 36.6595C171.96 35.9676 171.702 35.2328 171.702 33.3737V32.5949L164.568 40.8959L164.611 40.9388C165.986 40.1178 167.233 39.5128 169.253 39.5128C170.971 39.5128 172.132 40.204 173.464 41.3285C174.28 40.6366 174.839 39.9453 174.839 38.8643C174.839 37.9999 174.108 37.3514 173.034 36.6595ZM171.702 20.187L168.135 17.3772L168.049 17.4634V30.7363L170.799 32.8983L171.702 31.8608V20.187ZM174.323 36.0544C173.205 35.1894 173.076 34.4547 173.076 32.5955V19.4523L169.467 16.5121L168.651 17.0743L172.174 19.8842V33.2005C172.174 35.0597 172.261 35.5791 173.421 36.3566C174.452 37.0486 175.268 37.7833 175.268 38.778C175.268 39.0368 175.225 39.4693 175.225 39.4693L175.268 39.5128C175.483 39.2962 175.741 38.9505 175.741 38.3883C175.742 37.4376 175.268 36.7892 174.323 36.0544ZM184.636 36.3566L180.683 33.244L179.866 34.1518L179.523 33.8056L180.468 32.768V17.6359H177.975L177.889 17.5497L179.393 15.3008H180.467V12.4047L185.023 7.51911L185.108 7.606V15.3014H188.546L188.632 15.3883L187.128 17.6366H185.108V30.737L187.472 32.5533L188.375 31.5586L188.718 31.9042L184.636 36.3566ZM181.843 11.6693L180.941 12.6641V15.3014H181.843V11.6693ZM181.843 32.3361V17.6359H180.941V32.8549L184.593 35.7088L185.238 35.0169L181.843 32.3361ZM202.77 18.8901V30.9957L195.507 36.4001L190.05 32.2499L189.405 32.9846L189.062 32.6383L189.835 31.7739V19.9276L197.442 14.4364L202.512 18.4147L203.328 17.5497L203.672 17.8953L202.77 18.8901ZM191.211 31.342V19.5385L190.308 20.187V31.8173L195.465 35.7951L196.281 35.19L191.211 31.342ZM198.129 20.3167L194.519 17.4628L194.477 17.5062V30.3901L198.129 33.1571V20.3167ZM199.505 19.5385L195.508 16.4252L194.692 17.0303L198.602 20.0567V33.5034L199.505 32.8121V19.5385ZM219.186 36.3566L215.447 32.9411V20.3167L213.169 18.2416L211.966 19.5385V31.2117L213.298 32.4652V32.6383L209.774 36.3566L205.778 32.6818V32.5521L207.325 30.9095V20.0139L205.305 18.1547L204.489 19.0626L204.145 18.7169L208.055 14.4364L211.966 17.9388V18.8032L216.048 14.4364L219.873 17.8953L220.732 16.9874L221.118 17.3331L220.087 18.4141V30.7791L222.021 32.5949L222.966 31.5573L223.31 31.9029L219.186 36.3566ZM207.84 32.5955V32.5093C207.84 32.5955 208.7 31.6442 208.7 31.6442V19.3648L206.251 17.1165L205.65 17.765L207.798 19.7538V31.1676L206.466 32.5514V32.6377L209.775 35.6641L210.463 34.9294L207.84 32.5955ZM216.822 32.2499V19.582L214.158 17.1606L213.47 17.8953L215.919 20.1001V32.6818L219.142 35.7082L219.829 34.9728L216.822 32.2499ZM245.732 36.3566C244.529 35.0597 244.099 34.6272 242.681 34.2381V42.7123L242.594 42.7551L240.876 41.1981L235.891 45.8243L235.804 45.7815V34.1518C234.301 34.4975 232.711 35.2763 231.163 36.832L231.078 36.7892C231.379 33.4599 233.011 30.9957 235.804 30.0444V21.6136H234.902C233.656 21.6136 232.968 22.2621 232.367 23.4294H232.238C232.109 23.0409 232.023 22.4346 232.023 21.4411C232.023 19.6248 233.355 17.7228 235.547 17.7228H235.804V13.0532L234.042 11.4534L233.183 12.3184L232.882 12.0156L237.222 7.38942L241.261 11.1078V15.042L242.206 14.0045V9.032H242.679V13.5719L248.394 7.38878L253.25 11.8425V30.6501L245.732 36.3566ZM235.806 32.5521C234.044 32.8977 232.798 33.9787 231.982 35.4053L232.024 35.4922C233.228 34.4547 234.345 33.9793 235.806 33.6331V32.5521ZM237.181 20.1442H234.818C233.185 20.1442 232.54 21.1818 232.497 22.3924L232.54 22.4353C233.056 21.5702 233.571 21.268 234.602 21.1389H236.279V44.7018L237.181 43.8368V20.1442ZM237.181 12.3613L235.032 10.373L234.345 11.1078L236.279 12.8366V17.7222H237.181V12.3613ZM242.209 14.8254L241.264 15.8202V40.8538L242.209 41.7188V14.8254ZM247.838 13.8313L245.303 11.4968L242.681 14.3508V29.5691C244.916 29.7857 246.463 30.4341 247.795 31.9036L247.838 31.8608V13.8313ZM242.681 32.5521V33.6765C244.143 34.0221 244.744 34.4547 245.775 35.6647L246.764 34.8866C245.732 33.5896 244.701 32.8121 242.681 32.5521ZM249.213 13.1401L246.291 10.4158L245.603 11.1506L248.311 13.6582V33.7628L249.213 33.0708V13.1401ZM268.249 18.8901V30.9957L260.986 36.4001L255.529 32.2499L254.884 32.9846L254.54 32.6383L255.314 31.7739V19.9276L262.92 14.4364L267.991 18.4147L268.807 17.5497L269.151 17.8953L268.249 18.8901ZM256.69 31.342V19.5385L255.787 20.187V31.8173L260.944 35.7951L261.76 35.19L256.69 31.342ZM263.608 20.3167L259.999 17.4628L259.956 17.5062V30.3901L263.608 33.1571V20.3167ZM264.984 19.5385L260.987 16.4252L260.171 17.0303L264.081 20.0567V33.5034L264.984 32.8121V19.5385ZM278.218 22.2621H282.644V31.5145L275.812 36.3566C274.91 35.3191 273.621 34.5844 272.031 34.5844C270.742 34.5844 269.71 35.0169 268.335 36.1841L268.12 36.0973L273.964 27.5368H270.354V19.4951L277.531 14.4798C278.391 15.1717 279.035 15.5602 280.152 15.5602C281.012 15.5602 282.257 15.387 283.203 14.6095L283.375 14.6958L278.218 22.2621ZM273.405 33.3302C272.16 33.3302 271.171 33.7628 270.312 34.3678V34.4547C270.999 34.1518 271.686 34.0656 272.332 34.0656C273.32 34.0656 274.867 34.5416 275.898 35.7523L276.886 35.0175C276.07 34.0656 275.082 33.3302 273.405 33.3302ZM278.004 26.0667H275.597L270.57 33.3743L270.613 33.4606C271.859 32.5527 273.062 31.9477 274.523 31.9477C275.812 31.9477 277.144 32.5527 277.961 33.5903L278.003 33.5474L278.004 26.0667ZM271.73 26.0667V19.1066L270.827 19.7551V27.0186H274.308L274.995 26.0673L271.73 26.0667ZM280.711 17.5925C279.808 18.2416 279.293 18.5872 277.788 18.5872C276.928 18.5872 275.897 18.1981 275.081 17.3331L274.995 17.3765V23.6888H276.627L280.753 17.6353L280.711 17.5925ZM278.648 17.2034C277.874 17.2034 276.886 16.8149 276.242 15.9499L275.167 16.6846C275.984 17.6794 276.757 18.1113 277.961 18.1113C278.734 18.1113 279.852 17.8947 281.012 16.8999L281.054 16.7709C280.324 17.0743 279.422 17.2034 278.648 17.2034ZM279.379 24.6407H276.586L275.942 25.5486H278.476V33.9359L279.379 33.2874V24.6407ZM289.778 36.3566L285.825 33.244L285.008 34.1518L284.664 33.8056L285.609 32.768V17.6359H283.117L283.031 17.5497L284.535 15.3008H285.609V12.4047L290.164 7.51911L290.25 7.606V15.3014H293.688L293.774 15.3883L292.27 17.6366H290.25V30.737L292.614 32.5533L293.516 31.5586L293.86 31.9042L289.778 36.3566ZM286.985 11.6693L286.082 12.6641V15.3014H286.985V11.6693ZM286.985 32.3361V17.6359H286.082V32.8549L289.735 35.7088L290.379 35.0169L286.985 32.3361Z" fill="#C0C7D8"/>
</g>
<defs>
<clipPath id="clip0_605_5417">
<rect width="294" height="46" fill="white"/>
</clipPath>
</defs>
</svg>
