<svg width="110" height="35" viewBox="0 0 110 35" fill="none" xmlns="http://www.w3.org/2000/svg">
<g clip-path="url(#clip0_699_909)">
<path d="M4.74636 34.9591L0.998047 0H7.8428L9.79844 22.058L11.7541 0H18.2729L20.1471 22.058L22.0212 0H28.9475L25.1177 34.9591H16.7247L14.9728 18.1103L13.3023 34.9591H4.74636Z" fill="#C0C7D8"/>
<path d="M30.9346 0H41.6907C43.4019 0 44.7192 0.393408 45.6427 1.18022C46.5934 1.93991 47.2317 3.02517 47.5576 4.43601C47.8835 5.81972 48.0465 7.59684 48.0465 9.76737C48.0465 11.748 47.7885 13.2945 47.2724 14.4069C46.7563 15.5193 45.86 16.2925 44.5834 16.7266C45.6427 16.9437 46.4032 17.4727 46.865 18.3138C47.3539 19.1549 47.5983 20.2944 47.5983 21.7324L47.5169 34.9591H40.6721V21.2847C40.6721 20.308 40.482 19.684 40.1017 19.4127C39.7215 19.1413 39.0288 19.0057 38.0238 19.0057V34.9591H30.9346V0ZM39.735 12.9418C40.7129 12.9418 41.2018 11.8836 41.2018 9.76737C41.2018 8.8449 41.161 8.15304 41.0795 7.69181C40.9981 7.23057 40.8487 6.91856 40.6314 6.75577C40.4141 6.56584 40.1017 6.47088 39.6943 6.47088H38.0646V12.9418H39.735Z" fill="#C0C7D8"/>
<path d="M50.0249 34.9591V0H56.7881V34.9591H50.0249Z" fill="#C0C7D8"/>
<path d="M62.5966 34.9591V6.71507H58.4409V0H73.7601V6.71507H69.6043V34.9591H62.5966Z" fill="#C0C7D8"/>
<path d="M75.7354 34.9591V0H89.7509V6.75577H82.8654V13.5522H89.4657V20.1452H82.8654V28.1626H90.199V34.9591H75.7354Z" fill="#C0C7D8"/>
<path d="M91.9141 0H102.67C104.381 0 105.699 0.393408 106.622 1.18022C107.573 1.93991 108.211 3.02517 108.537 4.43601C108.863 5.81972 109.026 7.59684 109.026 9.76737C109.026 11.748 108.768 13.2945 108.252 14.4069C107.736 15.5193 106.84 16.2925 105.563 16.7266C106.622 16.9437 107.383 17.4727 107.845 18.3138C108.333 19.1549 108.578 20.2944 108.578 21.7324L108.496 34.9591H101.652V21.2847C101.652 20.308 101.462 19.684 101.081 19.4127C100.701 19.1413 100.008 19.0057 99.0033 19.0057V34.9591H91.9141V0ZM100.715 12.9418C101.692 12.9418 102.181 11.8836 102.181 9.76737C102.181 8.8449 102.141 8.15304 102.059 7.69181C101.978 7.23057 101.828 6.91856 101.611 6.75577C101.394 6.56584 101.081 6.47088 100.674 6.47088H99.044V12.9418H100.715Z" fill="#C0C7D8"/>
</g>
<defs>
<clipPath id="clip0_699_909">
<rect width="110" height="35" fill="white"/>
</clipPath>
</defs>
</svg>
