<svg width="146" height="39" viewBox="0 0 146 39" fill="none" xmlns="http://www.w3.org/2000/svg">
<g clip-path="url(#clip0_604_5384)">
<path d="M34.7673 26.7241L34.7471 26.6598L47.5217 14.945V9.30042H27.027V14.945H39.2685L39.2887 14.999L26.6389 26.7241V32.3686H47.7275V26.7241H34.7673Z" fill="#C0C7D8"/>
<path d="M60.3095 8.76306C57.9456 8.76306 56.0189 9.12015 54.5298 9.8345C53.1426 10.457 51.9741 11.4827 51.1759 12.7784C50.4122 14.0827 49.9327 15.5341 49.7688 17.0371L55.9874 17.9126C56.2124 16.5853 56.6623 15.6446 57.3371 15.0903C58.1042 14.5105 59.0495 14.2176 60.0094 14.2622C61.2716 14.2622 62.1872 14.6002 62.7558 15.2762C63.3198 15.9522 63.6065 16.8884 63.6065 18.1221V18.7373H57.6273C54.5838 18.7373 52.3973 19.4133 51.0679 20.7653C49.7385 22.1172 49.0749 23.9019 49.0771 26.1191C49.0771 28.3904 49.7407 30.0804 51.0679 31.189C52.3951 32.2976 54.0642 32.8485 56.0752 32.8418C58.5698 32.8418 60.4888 31.9821 61.8314 30.2629C62.6249 29.2063 63.1912 27.9969 63.495 26.7106H63.7209L64.578 32.355H70.2127V18.0613C70.2127 15.1072 69.4358 12.819 67.8815 11.1966C66.3271 9.5742 63.8029 8.76306 60.3095 8.76306ZM62.2804 26.3827C61.3861 27.1296 60.2151 27.5014 58.7576 27.5014C57.5564 27.5014 56.7219 27.2908 56.254 26.8694C56.026 26.67 55.8447 26.4229 55.7228 26.1454C55.6009 25.8679 55.5415 25.567 55.5488 25.264C55.5355 24.9781 55.5804 24.6926 55.6807 24.4248C55.7811 24.1569 55.9348 23.9123 56.1325 23.7058C56.3464 23.5049 56.5987 23.3495 56.8741 23.249C57.1496 23.1485 57.4425 23.105 57.7352 23.121H63.6165V23.5097C63.6283 24.0592 63.5138 24.604 63.2826 25.1021C63.0508 25.6002 62.708 26.0384 62.2804 26.3827Z" fill="#C0C7D8"/>
<path d="M104.285 9.30042H97.6283V32.372H104.285V9.30042Z" fill="#C0C7D8"/>
<path d="M143.591 9.30042C141.71 9.30042 140.228 9.96513 139.144 11.2946C138.366 12.25 137.774 13.6617 137.369 15.5297H137.173L136.303 9.30042H130.617V32.3686H137.275V20.5387C137.275 19.0471 137.623 17.9035 138.321 17.1081C139.018 16.3127 140.305 15.915 142.18 15.915H144.708V9.30042H143.591Z" fill="#C0C7D8"/>
<path d="M124.01 10.0541C122.457 9.12801 120.496 8.6661 118.13 8.66834C114.404 8.66834 111.489 9.7308 109.384 11.8556C107.278 13.9805 106.225 16.9098 106.225 20.6435C106.172 22.9009 106.664 25.1377 107.66 27.1634C108.571 28.9686 109.99 30.4668 111.742 31.4729C113.505 32.4936 115.603 33.0051 118.035 33.0074C120.138 33.0074 121.895 32.6829 123.305 32.034C124.632 31.4511 125.786 30.5377 126.66 29.3807C127.491 28.2449 128.108 26.9667 128.481 25.6086L122.746 23.9998C122.504 24.8828 122.039 25.6885 121.396 26.3387C120.748 26.9876 119.662 27.3122 118.14 27.3122C116.329 27.3122 114.979 26.7928 114.091 25.754C113.446 25.0037 113.041 23.9322 112.862 22.5431H128.569C128.633 21.8941 128.667 21.3499 128.667 20.9105V19.4741C128.705 17.5443 128.307 15.6308 127.503 13.8769C126.75 12.279 125.533 10.9465 124.01 10.0541ZM117.937 14.1675C120.637 14.1675 122.167 15.4981 122.529 18.1592H112.98C113.132 17.2713 113.5 16.4344 114.05 15.7223C114.925 14.6836 116.221 14.1653 117.937 14.1675Z" fill="#C0C7D8"/>
<path d="M101.029 0.00216423C100.528 -0.0148976 100.029 0.0690619 99.5614 0.249059C99.0936 0.429056 98.6671 0.701409 98.3061 1.04994C97.951 1.40181 97.6719 1.82389 97.4879 2.28937C97.3038 2.75484 97.2183 3.25355 97.2366 3.7539C97.2189 4.25748 97.3044 4.75938 97.4891 5.22825C97.6731 5.69713 97.9521 6.12294 98.3078 6.47908C98.6635 6.83522 99.0889 7.11407 99.5572 7.29826C100.026 7.48245 100.526 7.56801 101.029 7.54957C101.529 7.56848 102.027 7.48298 102.491 7.29856C102.956 7.11407 103.377 6.83469 103.728 6.47814C104.077 6.11792 104.348 5.69091 104.528 5.22274C104.707 4.75458 104.79 4.25494 104.771 3.7539C104.794 3.25582 104.714 2.7584 104.534 2.29341C104.354 1.82841 104.079 1.40607 103.728 1.05334C103.376 0.700611 102.954 0.425244 102.49 0.24483C102.027 0.0644156 101.53 -0.0170741 101.033 0.00554748L101.029 0.00216423Z" fill="#C0C7D8"/>
<path d="M87.2761 8.66833C85.0086 8.66833 83.1864 9.3815 81.8101 10.8078C80.7908 11.8646 80.0428 13.4419 79.5662 15.5398H79.3538L78.4831 9.31053H72.7977V39H79.4547V26.7714H79.6977C79.9006 27.5867 80.1856 28.3794 80.5478 29.1373C81.1111 30.3719 82.0349 31.4066 83.197 32.1049C84.4016 32.7635 85.7589 33.0912 87.131 33.0547C89.9183 33.0547 92.0402 31.9675 93.4978 29.793C94.9555 27.6186 95.6846 24.5845 95.6846 20.6909C95.6846 16.9301 94.979 13.9862 93.5692 11.859C92.1587 9.73191 90.0611 8.66833 87.2761 8.66833ZM87.951 25.3856C87.1747 26.5122 85.9601 27.0755 84.3066 27.0755C83.6253 27.1071 82.9457 26.9754 82.3251 26.6915C81.704 26.4076 81.1595 25.9797 80.7371 25.443C79.8753 24.3592 79.4458 22.8754 79.4482 20.9916V20.5522C79.4482 18.6392 79.8776 17.1745 80.7371 16.1583C81.596 15.142 82.7864 14.6396 84.3066 14.6508C85.9896 14.6508 87.2118 15.186 87.9746 16.2563C88.7373 17.3266 89.1184 18.8194 89.1184 20.7348C89.1231 22.7154 88.7361 24.2657 87.9575 25.3856H87.951Z" fill="#C0C7D8"/>
<path d="M24.0644 26.724H1.03232V32.3753H24.0644V26.724Z" fill="#C0C7D8"/>
</g>
<defs>
<clipPath id="clip0_604_5384">
<rect width="146" height="39" fill="white"/>
</clipPath>
</defs>
</svg>
